<svg xmlns="http://www.w3.org/2000/svg" width="183.264" height="48.385" viewBox="0 0 183.264 48.385">
  <path id="Tecnologias_para_o_Varejo_copiar_2" data-name="Tecnologias para o Varejo copiar 2" d="M676.466-1395.606v-12.063a4.381,4.381,0,0,1,4.777-4.309h7.383s3.04-.287,3.04,3.447v13.356s.072,1.723-2.171,1.723a2.433,2.433,0,0,1-2.606-1.723v-3.878h-6.08v3.447a2.115,2.115,0,0,1-2.171,2.154A2.115,2.115,0,0,1,676.466-1395.606Zm17.8-14.648v10.34s-.072,6.462,4.343,6.462h9.12s2.171.072,2.171-3.016v-13.787s0-1.723-2.171-1.723-2.606,1.436-2.606,2.154v11.2h-4.343s-2.171.359-2.171-2.154v-9.479a2.31,2.31,0,0,0-2.171-1.723,2.207,2.207,0,0,0-2.171,1.723Zm17.8-4.308v15.941s.186,5.17,4.343,5.17h4.343s1.737-.062,1.737-2.585a1.889,1.889,0,0,0-1.737-2.154h-3.04a1.681,1.681,0,0,1-1.3-1.723v-7.755h4.343a1.925,1.925,0,0,0,1.737-2.155c0-2.212-1.737-2.154-1.737-2.154h-3.909v-2.585a1.912,1.912,0,0,0-2.171-1.723A2.6,2.6,0,0,0,712.076-1414.562Zm16.936,3.016h6.514a4.326,4.326,0,0,1,4.343,4.309v9.048a4.326,4.326,0,0,1-4.343,4.308h-6.514a4.326,4.326,0,0,1-4.343-4.308v-9.048a4.326,4.326,0,0,1,4.343-4.309Zm2.172,3.878h2.606a2.162,2.162,0,0,1,2.171,2.154v5.6a2.163,2.163,0,0,1-2.171,2.154h-2.606a2.163,2.163,0,0,1-2.172-2.154v-5.6a2.163,2.163,0,0,1,2.172-2.154Zm-44.3,0v3.877h-6.08v-1.724a2,2,0,0,1,2.171-2.154h3.909Zm75.128,1.292,3.908-3.878s-2.953-3.877-9.554-3.877a12.319,12.319,0,0,0-12.159,12.063c0,6.463,3.3,13.356,11.725,13.356s9.554-3.447,9.554-3.447l-3.474-3.878s-.869,1.723-6.08,1.723c-6.775,0-6.514-7.324-6.514-7.324s-.008-6.894,7.281-6.894C760.66-1408.531,762.017-1406.376,762.017-1406.376Zm18.456-7.755a12.761,12.761,0,0,1,12.811,12.71,12.761,12.761,0,0,1-12.811,12.709,12.76,12.76,0,0,1-12.811-12.71,12.761,12.761,0,0,1,12.811-12.71Zm16.72,25.42v-25.42l14.765,16.8,15.2-16.8v25.419h-5.211v-11.2l-9.988,11.2-9.554-11.2v11.2h-5.211Zm-16.72-20.25a7.57,7.57,0,0,1,7.6,7.54,7.57,7.57,0,0,1-7.6,7.54,7.57,7.57,0,0,1-7.6-7.54,7.57,7.57,0,0,1,7.6-7.54Zm53.632-17.544-3.908,10.771s23.884,1.508,23.884,9.047c0,0,.435,3.655-4.342,6.2,0,0-9.011-5.45-15.2-5.342l-2.172,7.755s19.542,1.508,19.542,6.894-18.674,11.2-18.674,11.2,24.319-3.124,24.319-11.633c0,0,1.3-4.632-6.08-8.186,0,0,8.468-5.386,8.251-10.34S852.018-1421.874,834.1-1426.505Zm-102.858,41.3v5.212h1.375v-5.212H734v-1.439h-4.107v1.439Zm6.416,3.948h-2.509a.2.2,0,0,1-.169-.106.426.426,0,0,1-.071-.244v-.083l2.75-1.089v-1a1.251,1.251,0,0,0-.3-.89,1.1,1.1,0,0,0-.842-.318H734.9a1.179,1.179,0,0,0-.868.313,1.155,1.155,0,0,0-.316.858v2.519a1.844,1.844,0,0,0,.071.586,1.128,1.128,0,0,0,.658.65,1.881,1.881,0,0,0,.57.064h2.65v-1.264Zm-2.635-2.307a.423.423,0,0,1,.273-.092h.846a.307.307,0,0,1,.2.073.22.22,0,0,1,.088.174l-1.526.585,0-.512A.28.28,0,0,1,735.027-1383.563Zm6.618,2.307H739.98a.309.309,0,0,1-.247-.1.366.366,0,0,1-.088-.249v-1.9a.206.206,0,0,1,.057-.125.2.2,0,0,1,.11-.078h1.824v-1.273h-2.195a.94.94,0,0,0-.749.3,1.294,1.294,0,0,0-.264.876v2.528a1.127,1.127,0,0,0,1.269,1.282h1.947v-1.264Zm1.9,1.264v-3.367q0-.35.388-.35h.758q.388,0,.388.35v3.367h1.207v-3.792a1.231,1.231,0,0,0-.3-.885,1.113,1.113,0,0,0-.846-.313H743.47a1.114,1.114,0,0,0-.846.313,1.231,1.231,0,0,0-.3.885v3.792Zm6.389,0a1.772,1.772,0,0,0,.494-.055.851.851,0,0,0,.335-.194,1.166,1.166,0,0,0,.37-.867v-2.749a1.139,1.139,0,0,0-.37-.876,1.016,1.016,0,0,0-.348-.194,1.677,1.677,0,0,0-.48-.055h-1.622a1.713,1.713,0,0,0-.5.055.941.941,0,0,0-.339.208,1.226,1.226,0,0,0-.379.863v2.749a1.1,1.1,0,0,0,.388.867.915.915,0,0,0,.33.2,1.909,1.909,0,0,0,.5.046Zm-1.622-3.376q0-.341.379-.341h.854q.371,0,.37.341v1.762q0,.351-.37.351h-.854q-.379,0-.379-.341v-1.771Zm4.838,3.376v-6.854H751.93v6.854Zm3.64,0a1.771,1.771,0,0,0,.494-.055.851.851,0,0,0,.335-.194,1.166,1.166,0,0,0,.37-.867v-2.749a1.139,1.139,0,0,0-.37-.876,1.017,1.017,0,0,0-.348-.194,1.677,1.677,0,0,0-.48-.055h-1.622a1.711,1.711,0,0,0-.5.055.942.942,0,0,0-.339.208,1.227,1.227,0,0,0-.379.863v2.749a1.1,1.1,0,0,0,.387.867.914.914,0,0,0,.331.2,1.907,1.907,0,0,0,.5.046Zm-1.622-3.376q0-.341.379-.341h.855q.371,0,.37.341v1.762q0,.351-.37.351h-.855q-.379,0-.379-.341v-1.771Zm6.425,5.249a1.174,1.174,0,0,0,.89-.36,1.283,1.283,0,0,0,.344-.924v-4.379a1.55,1.55,0,0,0-.185-.85,1.17,1.17,0,0,0-.987-.351h-1.613a1.191,1.191,0,0,0-.938.318,1.6,1.6,0,0,0-.278,1.056v2.481a1.066,1.066,0,0,0,.339.821,1.241,1.241,0,0,0,.877.313h1.569v.216q0,.393-.361.394h-2.459v1.264Zm-1.569-5.268a.314.314,0,0,1,.092-.23.307.307,0,0,1,.225-.092h.96q.309,0,.308.378v1.744q0,.332-.308.332h-.943a.316.316,0,0,1-.238-.1.323.323,0,0,1-.1-.23v-1.8Zm4.821,3.395v-4.99h-1.2v4.99h1.2Zm-1.137-5.729a.728.728,0,0,0,.537.221.718.718,0,0,0,.529-.221.741.741,0,0,0,.22-.544.82.82,0,0,0-.216-.576.722.722,0,0,0-1.02-.047.717.717,0,0,0-.051.051.826.826,0,0,0-.22.581.73.73,0,0,0,.22.535Zm1.974,1.938h2.432a.292.292,0,0,1,.326.335v.117h-1.613a1.155,1.155,0,0,0-.864.314,1.2,1.2,0,0,0-.308.879v1.018a1.067,1.067,0,0,0,.326.833,1.3,1.3,0,0,0,.908.3h1.657a1.023,1.023,0,0,0,.784-.332,1.175,1.175,0,0,0,.308-.83v-2.647a1.158,1.158,0,0,0-.317-.876,1.246,1.246,0,0,0-.9-.3h-2.741v1.2Zm1.19,1.959a.411.411,0,0,1,.062-.27.344.344,0,0,1,.247-.065h.925q.335,0,.335.3v.354q0,.289-.326.289h-.934a.307.307,0,0,1-.22-.084.272.272,0,0,1-.088-.205v-.316Zm5.945,1.832a1.186,1.186,0,0,0,.447-.069,1.08,1.08,0,0,0,.351-.263,1.054,1.054,0,0,0,.325-.775v-.913a1.091,1.091,0,0,0-.315-.775.973.973,0,0,0-.726-.332h-1.006q-.359,0-.359-.24v-.12q0-.23.361-.23h2.071l-.009-1.273h-2.432a1.2,1.2,0,0,0-.863.3,1.094,1.094,0,0,0-.317.83v.932a.989.989,0,0,0,.339.743,1.129,1.129,0,0,0,.8.318h1.04a.179.179,0,0,1,.168.138l.026.111v.111c0,.16-.1.24-.289.24H770.34v1.264h2.473Zm5.67,1.873v-1.873h1.639a1.084,1.084,0,0,0,.784-.341,1.076,1.076,0,0,0,.344-.784v-2.583a1.362,1.362,0,0,0-.3-.946,1.1,1.1,0,0,0-.859-.336H778.36a1.009,1.009,0,0,0-.793.337,1.454,1.454,0,0,0-.3.993v5.533Zm0-5.221a.372.372,0,0,1,.1-.268.329.329,0,0,1,.247-.1h.943a.259.259,0,0,1,.194.083.294.294,0,0,1,.079.212v1.854a.289.289,0,0,1-.092.217.315.315,0,0,1-.225.087h-.863a.33.33,0,0,1-.379-.369v-1.716Zm3.6-.443h2.432a.292.292,0,0,1,.326.335v.117h-1.613a1.156,1.156,0,0,0-.864.314,1.2,1.2,0,0,0-.308.879v1.018a1.067,1.067,0,0,0,.326.833,1.3,1.3,0,0,0,.908.3h1.657a1.023,1.023,0,0,0,.784-.332,1.174,1.174,0,0,0,.308-.83v-2.647a1.158,1.158,0,0,0-.317-.876,1.246,1.246,0,0,0-.9-.3h-2.741v1.2Zm1.19,1.959a.412.412,0,0,1,.062-.27.345.345,0,0,1,.247-.065h.925q.335,0,.335.3v.354q0,.289-.326.289h-.934a.307.307,0,0,1-.22-.084.272.272,0,0,1-.088-.205v-.316Zm4.8,1.832v-3.459a.217.217,0,0,1,.11-.185.488.488,0,0,1,.278-.074h.458v-1.273H788.1q-1.234,0-1.234,1.291v3.7Zm1.234-3.791h2.432a.292.292,0,0,1,.326.335v.117H790.46a1.155,1.155,0,0,0-.864.314,1.2,1.2,0,0,0-.308.879v1.018a1.067,1.067,0,0,0,.326.833,1.3,1.3,0,0,0,.907.3h1.657a1.021,1.021,0,0,0,.784-.332,1.173,1.173,0,0,0,.309-.83v-2.647a1.158,1.158,0,0,0-.317-.876,1.246,1.246,0,0,0-.9-.3h-2.741v1.2Zm1.19,1.959a.411.411,0,0,1,.062-.27.344.344,0,0,1,.247-.065h.925q.335,0,.335.3v.354q0,.289-.326.289h-.934a.308.308,0,0,1-.221-.084.273.273,0,0,1-.088-.205v-.316Zm8.971,1.832a1.772,1.772,0,0,0,.494-.055.849.849,0,0,0,.335-.194,1.166,1.166,0,0,0,.37-.867v-2.749a1.139,1.139,0,0,0-.37-.876,1.013,1.013,0,0,0-.348-.194,1.685,1.685,0,0,0-.48-.055h-1.622a1.7,1.7,0,0,0-.5.055.939.939,0,0,0-.339.208,1.226,1.226,0,0,0-.379.863v2.749a1.1,1.1,0,0,0,.387.867.917.917,0,0,0,.33.2,1.908,1.908,0,0,0,.5.046Zm-1.622-3.376q0-.341.379-.341h.855q.37,0,.37.341v1.762q0,.351-.37.351h-.855q-.379,0-.379-.341v-1.771Zm7.535,2.638q.282.821.952.821.687,0,.952-.821l1.868-5.913h-1.446l-1.383,4.723-1.375-4.723H803.52Zm3.719-3.053h2.432a.292.292,0,0,1,.326.335v.117h-1.613a1.155,1.155,0,0,0-.864.314,1.2,1.2,0,0,0-.308.879v1.018a1.067,1.067,0,0,0,.326.833,1.3,1.3,0,0,0,.907.3h1.657a1.022,1.022,0,0,0,.784-.332,1.172,1.172,0,0,0,.308-.83v-2.647a1.159,1.159,0,0,0-.317-.876,1.244,1.244,0,0,0-.9-.3h-2.741v1.2Zm1.19,1.959a.411.411,0,0,1,.062-.27.344.344,0,0,1,.247-.065h.925q.335,0,.335.3v.354q0,.289-.326.289h-.934a.306.306,0,0,1-.22-.084.272.272,0,0,1-.088-.205v-.316Zm4.8,1.832v-3.459a.217.217,0,0,1,.111-.185.488.488,0,0,1,.277-.074h.458v-1.273h-.828q-1.234,0-1.234,1.291v3.7Zm5.279-1.264h-2.51a.2.2,0,0,1-.169-.106.431.431,0,0,1-.071-.245v-.083l2.75-1.088v-1a1.251,1.251,0,0,0-.3-.89,1.1,1.1,0,0,0-.842-.318h-1.623a1.179,1.179,0,0,0-.869.313,1.155,1.155,0,0,0-.316.858v2.519a1.846,1.846,0,0,0,.071.586,1.13,1.13,0,0,0,.658.65,1.881,1.881,0,0,0,.57.064h2.65v-1.264Zm-2.635-2.307a.425.425,0,0,1,.273-.092h.846a.308.308,0,0,1,.2.073.22.22,0,0,1,.088.174l-1.527.585,0-.512A.28.28,0,0,1,817.744-1383.563Zm2.591,5.443h.749a1.254,1.254,0,0,0,.938-.337,1.31,1.31,0,0,0,.331-.956v-5.57h-1.208v5.23q0,.37-.357.37h-.455v1.264Zm.871-7.6a.714.714,0,0,0,.526.221.724.724,0,0,0,.535-.221.746.746,0,0,0,.219-.545.825.825,0,0,0-.215-.576.7.7,0,0,0-.539-.235.688.688,0,0,0-.526.24.831.831,0,0,0-.219.581.733.733,0,0,0,.219.535Zm4.8,5.729a1.773,1.773,0,0,0,.494-.055.844.844,0,0,0,.335-.194,1.164,1.164,0,0,0,.37-.867v-2.749a1.137,1.137,0,0,0-.37-.876,1.014,1.014,0,0,0-.348-.194,1.689,1.689,0,0,0-.481-.055h-1.621a1.712,1.712,0,0,0-.5.055.933.933,0,0,0-.339.208,1.223,1.223,0,0,0-.379.863v2.749a1.1,1.1,0,0,0,.388.867.91.91,0,0,0,.33.2,1.918,1.918,0,0,0,.5.046Zm-1.621-3.376q0-.341.379-.341h.855q.37,0,.37.341v1.762q0,.35-.37.351h-.855q-.379,0-.379-.341v-1.771Z" transform="translate(-676.466 1426.505)" fill="#fff" fill-rule="evenodd"/>
</svg>
